<?xml version="1.0" encoding="utf-8" ?>
<svg xmlns="http://www.w3.org/2000/svg" xmlns:xlink="http://www.w3.org/1999/xlink" viewBox="0 0 708 227">
	<path fill="#FFF" d="M675.073 139.643C677.625 138.444 682.099 134.179 684.706 134.331C684.932 135.253 684.512 136.143 684.032 136.956C682.943 138.802 679.5 143.566 677.498 144.405C678.177 143.564 679.147 142.289 679.325 141.192C679.441 140.479 679.264 140.304 678.864 139.758C677.741 139.189 676.285 139.52 675.073 139.643Z"/>
	<path fill="#FFF" d="M547.422 58.2184C558.592 58.0599 569.663 58.3404 580.825 58.6278C580.81 58.9111 580.772 59.1901 580.667 59.4558C579.634 62.0808 569.177 70.7886 566.703 71.8419C566.691 71.8732 566.679 71.9051 566.665 71.9358C565.978 73.4148 561.731 76.0553 560.164 76.6015C560.137 76.4816 560.131 76.4389 560.084 76.3131C559.849 75.6905 559.204 75.1625 558.687 74.7607C555.185 72.037 551.376 69.6376 547.789 67.0155C544.598 64.6828 540.166 60.4385 536.81 58.9791C540.34 58.4103 543.9 58.7609 547.422 58.2184Z"/>
	<path fill="#FFF" d="M545.998 77.9125C551.045 77.7621 556.117 78.0386 561.168 78.0137C565.854 77.9906 571.202 77.2496 575.786 78.1089L575.779 78.2783C575.771 78.5559 575.758 78.8224 575.699 79.095C575.317 80.8537 573.056 82.7608 571.616 83.7011C571.694 83.8645 571.761 84.0309 571.813 84.2047C572.363 86.0536 571.831 90.6416 571.881 92.8029C571.997 97.7799 572.498 102.741 572.598 107.721C572.725 114.009 572.349 120.273 571.979 126.548C571.848 128.753 572.069 132.379 570.945 134.272C573.452 134.257 576.521 133.931 578.934 134.652C579.873 134.933 580.569 135.169 581.045 136.053L580.611 136.726C577.651 138.432 574.203 138.3 570.887 138.465C572.674 142.082 567.488 151.48 575.246 156.597C577.722 158.23 586.488 160.365 587.466 161.471C587.423 161.878 587.491 162.18 587.162 162.454C585.149 164.13 574.282 162.596 571.359 162.362C566.919 161.631 559.219 161.799 554.612 162.095C550.963 162.329 538.553 165.284 536.198 163.808L536.255 163.235C537.9 161.104 542.515 160.018 544.975 158.9C546.879 158.035 548.152 156.824 548.885 154.839C550.236 151.182 551.351 141.785 549.652 138.174C549.638 138.145 549.624 138.116 549.609 138.086C545.702 137.526 541.295 138.395 537.544 136.94C537.371 136.872 537.35 136.677 537.278 136.513C540.041 134.452 545.999 134.877 549.333 134.876C551.336 132.026 548.38 92.6306 547.092 86.3431C546.855 85.1828 546.649 83.7836 546.102 82.7229C545.427 81.4123 543.77 80.2308 543.556 78.833C544.095 78.1206 545.167 78.0665 545.998 77.9125Z"/>
	<path fill="#FFF" d="M147.076 53.9598C153.686 52.9964 163.668 59.2822 170.845 60.3153C176.954 61.1947 189.686 57.5801 197.111 57.4908C198.058 57.4794 199.566 57.3885 200.28 58.0901C199.527 60.2866 192.587 65.5956 190.469 67.7786C189.501 72.7236 190.043 77.7212 189.735 82.7226C189.186 91.6299 188.462 100.527 188.165 109.45C187.838 119.253 187.977 129.138 187.867 138.952C187.823 142.877 189.319 146.971 188.032 150.759C188.716 153.038 189.488 155.31 190.651 157.392C193.25 159.056 198.727 161.842 200.299 164.459C200.595 164.951 200.521 165.07 200.375 165.61C198.844 166.371 197.008 165.834 195.407 165.528C190.48 164.209 177.626 165.505 172.061 165.712C164.677 165.987 157.219 166.091 149.823 166.244C154.678 161.451 161.974 158.498 166.088 153.168C166.089 148.509 166.639 143.913 166.771 139.267Q167.474 118.924 166.974 98.5745C166.804 92.8724 165.727 74.8094 163.913 70.3535C163.124 68.4156 161.631 66.7775 160.102 65.3907C156.659 62.2699 152.286 60.2398 148.924 57.0451C148.049 56.2137 147.103 55.2318 147.076 53.9598Z"/>
	<path fill="#FFF" d="M259.469 54.415Q259.8 54.3602 260.135 54.3352C264.155 54.0556 278.072 68.2365 281.753 71.2216C284.937 73.8028 288.612 75.8629 291.647 78.5818C292.416 79.2709 293.467 80.193 293.53 81.2829L293.059 81.7672C290.35 82.2965 276.524 77.8187 273.745 76.5505C271.222 75.399 268.95 73.4928 266.283 72.6863C265.389 72.4158 264.398 72.3332 263.468 72.3518C260.837 72.4043 258.2 72.998 255.571 73.1614C252.833 73.3314 250.112 73.0179 247.377 73.427C245.994 73.634 244.571 73.996 243.339 74.674C241.787 75.5275 240.689 76.8588 240.251 78.5846C238.891 83.9301 243.008 97.9357 240.939 104.707C240.93 104.737 240.921 104.766 240.911 104.796C243.759 104.808 246.7 105.408 249.545 105.678C254.66 106.163 259.384 105.608 264.437 104.77Q264.66 105.105 264.801 105.482Q264.941 105.86 264.992 106.259C265.268 108.35 265.65 120.67 264.682 121.902L263.758 121.898C261.516 120.478 261.567 118.236 260.12 116.347C260.075 116.288 260.029 116.23 259.983 116.171C254.889 115.266 247.335 115.92 241.964 115.882C243.561 118.251 243.076 124.12 243.159 127.011C243.292 131.622 243.037 137.374 244.197 141.811C244.906 144.519 246.308 147.088 246.968 149.583C246.98 149.63 246.991 149.677 247.002 149.724C254.513 150.2 261.899 149.538 269.386 149.562C272.077 148.766 280.772 143.089 282.514 141.14C285.257 140.197 287.014 137.078 289.733 136.057C290.142 136.715 290.24 136.972 290.146 137.749C289.962 139.263 289.192 140.914 288.535 142.273C286.808 145.849 284.545 149.285 282.678 152.817C280.655 156.646 278.966 160.678 276.844 164.446C276.486 165.082 276.131 165.586 275.539 166.03C271.307 166.188 267.051 165.561 262.83 165.297C258.289 165.012 253.709 165.028 249.161 165.007C239.843 164.965 230.649 166.145 221.357 166.02C222.169 162.172 223.469 158.465 224.111 154.562C225.829 144.126 225.601 127.749 223.759 117.335C220.811 115.742 216.772 115.59 214.119 113.78C213.395 113.286 213.274 113.075 213.125 112.251C214.171 110.133 222.78 106.417 225.165 105.349C225.473 101.025 225.253 96.8021 225.149 92.4758L224.527 92.0237L225.458 92.1066L224.837 92.142L224.131 91.3709C223.433 87.7141 222.989 82.2046 223.66 78.5603Q218.141 75.6826 212.741 72.5885C219.418 69.813 226.489 68.0419 233.102 65.0837C236.089 63.7478 238.352 61.0896 241.444 59.9021C247.142 57.7138 254.206 57.8876 259.469 54.415Z"/>
	<path fill="#FFF" d="M677.498 144.405C677.132 146.741 671.354 151.486 669.592 153.092C662.645 159.425 646.206 171.532 636.606 171.053C634.433 170.944 632.402 170.387 630.403 169.549C625.272 167.399 611.014 158.987 607.487 155.021C601.945 148.787 598.807 120.598 598.261 111.632C598.129 109.456 598.5 107.248 598.419 105.07C598.374 103.848 597.911 102.584 597.835 101.306C597.52 96.0638 597.476 88.7853 597.847 83.5247C598.543 73.6432 605.248 67.7232 612.302 61.5949C620.894 54.1304 629.663 47.7148 640.462 43.9477C642.432 43.2604 644.744 42.2971 646.857 42.4664C653.901 43.0306 674.741 50.3812 679.265 55.7998C679.774 56.4101 680.137 57.0546 680.044 57.8574C679.606 61.6747 676.287 65.484 674.882 69.0744C673.402 72.857 672.845 77.0202 671.167 80.7133C670.477 82.2307 669.73 83.6171 668.408 84.6686L668.315 84.7412C668.333 84.6203 668.334 84.6264 668.34 84.4862C668.39 83.2759 666.937 80.3984 666.54 79.0768C665.966 77.1645 663.193 65.0882 662.806 64.4482C658.129 62.7614 652.295 61.8629 647.309 61.8607Q645.64 61.8586 643.99 62.1037Q642.339 62.3488 640.743 62.8358C636.183 64.1889 623.451 69.8477 620.361 73.0607C618.993 74.4827 618.409 76.7835 618.124 78.6765C616.974 86.3073 617.822 96.7873 618.039 104.604C618.171 109.37 617.96 114.144 618.061 118.91C618.282 129.391 621.285 141.416 629.101 148.834C633.41 152.924 637.756 154.292 643.621 154.122C646.752 154.032 649.966 153.735 652.944 152.722C656.949 151.36 672.454 142.414 675.073 139.643C676.285 139.52 677.741 139.189 678.864 139.758C679.264 140.304 679.441 140.479 679.325 141.192C679.147 142.289 678.177 143.564 677.498 144.405Z"/>
	<path fill="#FFF" d="M279.252 51.999C286.696 51.5707 293.554 55.4625 300.898 55.9389C308.796 56.4511 317.097 56.2128 324.983 55.6021C327.747 55.3879 335.777 53.7948 337.854 54.5307C342.198 56.0704 374.345 79.435 375.768 82.4878C375.738 82.6206 375.695 82.745 375.643 82.8711C374.936 84.5924 372.69 86.5995 371.501 88.1229C364.47 97.1329 358.285 104.508 347.37 109.13C347.556 109.33 347.726 109.537 347.866 109.772C349.229 112.062 349.995 115.584 351.057 118.121C353.852 124.797 356.94 131.479 359.911 138.083C364.508 148.299 370.489 157.955 375.867 167.754C376.848 169.543 378.562 172.574 378.021 174.675C377.942 174.982 377.586 175.098 377.321 175.261C372.492 174.916 361.551 154.272 357.067 150.836C357.009 150.791 356.95 150.749 356.891 150.705C356.878 150.536 356.857 150.351 356.794 150.193C355.912 147.978 353.455 145.239 352.058 143.182C345.655 133.752 339.489 123.573 331.922 115.033C330.86 113.834 329.87 112.952 328.431 112.233C328.546 112.418 328.659 112.616 328.731 112.822C329.197 114.165 328.861 116.722 328.862 118.226C328.862 123.227 328.213 128.194 328.107 133.192C327.975 139.377 328.357 145.606 328.242 151.784C328.233 152.28 328.075 152.725 327.847 153.159C327.815 153.309 327.773 153.453 327.714 153.595C327.25 154.726 322.543 159.316 321.351 160.913C319.606 163.249 317.896 165.687 316.345 168.157C314.064 171.789 311.702 177.84 308.023 180.178C307.285 180.646 306.66 180.827 305.804 180.64C304.071 179.39 305.819 173.946 306.235 172.048C306.748 169.702 307.44 167.332 307.763 164.952C308.063 162.753 308.056 160.518 308.339 158.319C308.671 155.745 309.305 153.206 309.555 150.623C310.442 141.449 310.419 132.284 310.477 123.089C310.498 119.845 310.778 116.582 310.714 113.342C310.622 108.641 310.139 103.935 310.018 99.2275C309.858 93.0637 310.55 85.5447 308.838 79.6185C307.364 74.5133 301.116 75.8126 297.429 73.6924C294.559 72.0418 295.747 67.2897 294.976 64.4984C293.713 59.9227 285.675 57.2415 281.845 55.095C280.863 54.5444 279.137 53.6681 278.812 52.5135L279.252 51.999ZM325.661 71.0002C327.628 74.5888 326.569 84.7472 326.749 89.1655C326.843 91.4586 327.804 97.8505 327.287 99.7433C327.242 99.9076 327.184 100.064 327.115 100.219C329.795 100.194 343.386 99.0008 344.586 97.6775C344.607 97.6536 344.626 97.6272 344.647 97.6021L344.412 96.9189C345.524 94.7636 349.2 86.59 348.514 84.4756C347.162 80.3073 339.209 74.3014 335.383 72.4056C332.576 71.0148 328.753 70.1225 325.661 71.0002Z"/>
	<path fill="#FFF" d="M427.705 53.7264C428.643 53.6527 428.962 53.535 429.766 54.0924C432.714 56.1387 435.523 59.5863 438.172 62.1219C441.716 65.5134 456.475 78.4806 460.465 79.5421C460.755 79.4641 461.197 79.4133 461.392 79.1924C462.45 77.9915 462.186 75.8793 462.101 74.3961C461.875 70.46 459.766 60.6611 456.623 57.8767C461.863 57.8598 466.986 58.8799 472.17 59.4954C477.207 60.0936 482.407 60.3802 487.478 60.5656C492.796 60.76 498.201 60.24 503.525 60.091C507.795 59.9715 512.246 60.2235 516.488 59.8303C520.316 59.4755 524.097 58.5651 527.938 58.3238C528.986 58.2579 530.028 58.2171 530.841 58.929C530.826 59.1945 530.797 59.4533 530.74 59.7137C530.255 61.9325 527.579 67.1209 525.705 68.3633C525.992 68.6698 526.253 68.9978 526.406 69.3935C527.555 72.3654 528.247 81.2799 526.943 84.1231C526.922 83.9888 526.923 83.975 526.882 83.827C526.432 82.2028 518.673 75.2144 516.942 74.1617C513.27 74.1438 509.608 73.6365 505.971 73.1617C507.343 75.5457 504.506 106.549 504.339 111.75C504.114 118.749 504.363 125.758 504.196 132.759C504.098 136.829 503.085 143.52 504.05 147.345C505.184 151.841 513.545 153.098 517.078 155.18C517.772 155.59 517.978 155.693 518.167 156.461C517.126 157.725 513.803 157.323 512.238 157.347C507.869 157.413 504.35 158.897 500.172 159.762C500.104 160.981 498.024 164.081 497.435 165.433C496.067 168.573 494.45 177.206 492.33 179.191C490.092 178.339 488.148 161.918 485.286 158.608C485.244 158.56 485.2 158.513 485.158 158.465C478.26 157.398 470.91 158.363 463.92 157.872C469.181 155.459 478.77 151.721 482.96 148.083C484.707 146.567 484.78 143.847 484.908 141.676C485.407 133.236 483.364 76.3152 480.535 73.1092C476.848 73.2026 473.356 73.8493 469.742 74.5215C468.472 77.1902 464.443 83.0954 461.747 84.441C460.577 83.4583 458.332 82.5466 456.879 82.0581C455.262 80.1046 445.179 78.3552 442.316 77.3999C438.855 76.2453 436.049 73.5629 432.549 72.4676C431.576 72.1629 430.4 71.9317 429.376 71.9783C427.276 72.0739 425.05 72.788 422.969 73.141C417.503 74.0684 411.42 74.1135 406.405 76.6969C406.217 77.0648 407.169 93.8161 407.356 96.0975C407.55 98.4622 408.617 102.573 407.962 104.779C407.942 104.844 407.92 104.909 407.9 104.974C412.671 104.833 417.327 105.516 422.072 105.565C425.134 105.596 428.228 105.081 431.284 104.844C431.792 105.356 432.005 105.876 432.19 106.559C432.983 109.475 432.529 119.965 431.072 122.476C431.053 122.272 431.024 122.061 430.957 121.867C430.311 119.992 427.064 117.261 425.322 116.349C422.18 115.964 414.554 114.783 411.782 116.361C410.467 117.11 409.938 118.409 409.677 119.832C409.294 121.917 409.859 124.383 410.009 126.488C410.202 129.209 411.37 148.498 411.269 148.859C411.253 148.915 411.235 148.971 411.218 149.027C417.071 150.094 429.326 150.887 434.843 149.341C439.367 148.074 455.041 136.072 455.666 136.082L455.965 136.565C455.896 138.23 455.453 139.618 454.774 141.134C453.499 143.98 451.413 146.325 449.973 149.066C449.361 150.23 449.213 151.556 448.665 152.728C447.931 154.298 442.591 164.57 441.899 165.435C435.539 166.836 423.211 165.271 416.332 165.266C406.577 165.258 396.772 166.005 387.001 166.13C387.231 165.919 387.447 165.699 387.639 165.452C391.745 160.152 392.316 128.798 391.224 121.157C390.317 114.816 382.782 116.137 378.711 113.069L378.645 112.525C379.641 111.628 381.08 111.321 382.278 110.758C385.608 109.193 390.541 106.611 391.81 102.967C392.227 101.769 392.284 100.494 392.183 99.2389C391.876 95.4042 390.269 91.6767 390.014 87.8443C389.854 85.4327 390.656 81.6446 389.62 79.4715C389.565 79.2685 389.509 79.1103 389.415 78.9206C387.974 75.9829 381.132 73.5872 378.097 72.5475C385.106 71.7822 393.458 68.9277 399.499 65.282C403.503 62.8649 406.962 60.1862 411.43 58.5601C415.524 57.0701 424.99 56.6048 427.705 53.7264Z"/>
	<path fill="#FFF" d="M87.7745 15.8883C88.3148 16.548 86.917 19.9154 86.6628 20.849C84.6969 28.0688 84.7244 36.2643 84.1784 43.703C83.6386 51.0555 82.676 58.4447 82.2982 65.7964C81.889 73.7608 82.1042 81.8117 82.1986 89.7841C90.423 90.0517 98.4816 91.8018 106.682 92.4082C107.59 85.5496 107.079 71.7394 106.764 64.4429C106.618 61.0771 105.78 57.1932 106.458 53.8767C106.836 52.0231 107.712 50.4564 108.93 49.0224C113.816 43.2698 126.021 35.3771 132.534 31.0991C132.008 36.6218 130.914 42.0997 130.55 47.6386C130.03 55.5702 129.532 63.6057 129.205 71.5448C128.884 79.3435 128.769 86.9536 127.983 94.7449C131.056 95.2452 134.039 96.2282 137.137 96.6711C141.327 97.27 151.742 97.4391 154.835 98.5684L154.847 99.1365C153.879 99.9476 132.538 103.599 128.882 104.46C129.11 108.301 128.375 112.255 128.222 116.098C128.102 119.121 128.342 122.146 128.259 125.169C128.078 131.837 127.615 138.42 127.658 145.103C127.685 149.126 128.149 153.11 128.364 157.121C128.571 160.993 128.55 164.878 128.862 168.743C129.214 173.1 129.875 177.451 129.821 181.829C123.681 178.34 119.66 171.668 114.344 167.147C112.197 165.321 108.898 164.647 107.005 162.643C105.619 161.177 106.758 148.044 106.858 145.373C107.154 139.318 106.836 133.181 106.816 127.115C106.795 120.936 107.086 114.651 106.642 108.489C98.9981 109.63 91.0019 111.312 83.4932 113.15C83.3845 113.286 83.2963 113.384 83.2536 113.558C82.6281 116.101 83.0335 119.779 83.04 122.424C83.0673 133.519 83.5366 144.571 83.9472 155.648C84.1067 159.952 83.8373 164.417 84.3789 168.685C84.5271 169.852 85.0348 170.848 85.5857 171.873C81.4587 175.445 76.2194 177.726 71.814 180.954C65.1487 185.837 59.1173 191.865 52.1603 196.306C52.6172 192.416 53.8064 188.666 54.5278 184.824C55.203 181.229 55.391 177.379 55.6501 173.728C56.0571 167.992 55.8611 162.121 55.9001 156.366C56.0001 141.633 55.6855 126.87 55.9783 112.149C49.2553 110.349 42.4507 108.769 35.6863 107.128C31.1932 106.037 26.435 105.122 22.1746 103.309C21.624 103.075 21.5751 103.073 21.3451 102.505L21.546 102.457L21.2574 102.828L21.1587 102.683C22.7098 100.911 50.4621 97.8262 54.903 95.0333C55.6276 94.5776 56.0405 94.1376 56.176 93.295C56.9119 88.7185 56.1777 83.2461 56.2014 78.5459C56.2544 68.0193 56.5776 57.5087 56.481 46.9817C56.4451 43.0665 55.5752 38.4252 56.5432 34.6131C56.8146 33.5442 56.9891 33.0313 57.8754 32.3281C61.2331 29.6643 65.9741 27.7802 69.8162 25.7842C75.8998 22.6236 81.8917 19.4127 87.7745 15.8883Z"/>
</svg>
